<?xml version="1.0" encoding="UTF-8" standalone="no"?>
<!DOCTYPE svg PUBLIC "-//W3C//DTD SVG 20010904//EN"
              "http://www.w3.org/TR/2001/REC-SVG-20010904/DTD/svg10.dtd">

<svg xmlns="http://www.w3.org/2000/svg"
     width="3in" height="1in"
     viewBox="0 0 1920 1080">
  <path id="Selection"
        fill="black" stroke="black" stroke-width="1"
        d="M 314.00,567.00
           C 316.06,567.07 318.53,566.87 320.02,568.60
             321.28,570.07 322.76,578.53 323.37,581.00
             325.34,588.85 327.78,595.97 331.88,603.00
             342.58,621.39 366.05,632.76 387.00,633.00
             394.16,633.08 402.30,632.18 409.00,629.54
             426.44,622.66 438.57,604.81 432.96,586.00
             431.50,581.10 429.29,577.10 426.24,573.00
             419.75,564.28 409.24,557.94 400.00,552.40
             400.00,552.40 345.00,519.67 345.00,519.67
             327.24,507.80 312.27,491.58 312.00,469.00
             311.91,461.33 311.75,456.50 314.04,449.00
             322.24,422.12 348.55,405.32 376.00,405.00
             389.99,404.84 397.81,406.51 411.00,411.00
             415.95,412.69 427.54,418.04 432.00,417.70
             439.06,417.15 441.60,410.96 443.00,405.00
             443.00,405.00 450.00,405.00 450.00,405.00
             450.00,405.00 450.00,485.00 450.00,485.00
             450.00,485.00 443.00,485.00 443.00,485.00
             440.64,455.91 426.04,430.45 397.00,421.35
             378.49,415.54 357.95,419.07 345.68,435.00
             341.07,440.99 338.73,447.42 339.04,455.00
             339.68,470.95 353.95,480.93 366.00,489.00
             366.00,489.00 419.00,519.58 419.00,519.58
             428.64,525.17 441.33,532.73 448.71,541.01
             472.91,568.17 469.73,607.86 441.00,630.48
             424.42,643.54 407.45,646.24 387.00,646.00
             376.30,645.87 363.17,642.36 353.00,639.00
             348.18,637.41 335.58,633.23 331.00,633.28
             322.11,633.37 321.98,643.04 319.42,644.98
             317.95,646.09 315.74,645.94 314.00,646.00
             314.00,646.00 314.00,567.00 314.00,567.00 Z
           M 856.00,405.00
           C 863.75,405.09 862.74,405.09 867.85,417.00
             867.85,417.00 882.01,451.00 882.01,451.00
             882.01,451.00 922.58,548.00 922.58,548.00
             922.58,548.00 944.78,601.00 944.78,601.00
             949.10,610.14 954.70,622.40 963.00,628.37
             975.75,637.54 981.64,629.67 982.00,641.00
             982.00,641.00 891.00,641.00 891.00,641.00
             891.00,641.00 891.00,635.00 891.00,635.00
             895.19,634.45 902.33,633.68 906.00,632.03
             916.54,627.28 915.44,619.24 912.85,610.00
             912.85,610.00 895.00,564.00 895.00,564.00
             895.00,564.00 814.00,564.00 814.00,564.00
             810.59,564.01 807.19,563.59 804.65,566.31
             802.83,568.26 799.42,577.04 798.15,580.00
             798.15,580.00 786.44,608.00 786.44,608.00
             784.71,612.76 782.97,619.08 785.01,623.99
             788.87,633.28 801.54,633.48 810.00,635.00
             810.00,635.00 810.00,641.00 810.00,641.00
             810.00,641.00 738.00,641.00 738.00,641.00
             738.41,629.44 746.35,636.14 755.96,627.78
             762.73,621.89 769.92,607.40 773.58,599.00
             773.58,599.00 827.42,473.00 827.42,473.00
             827.42,473.00 847.42,426.00 847.42,426.00
             847.42,426.00 856.00,405.00 856.00,405.00 Z
           M 1107.00,405.00
           C 1114.75,405.09 1113.74,405.09 1118.85,417.00
             1118.85,417.00 1133.01,451.00 1133.01,451.00
             1133.01,451.00 1173.58,548.00 1173.58,548.00
             1173.58,548.00 1195.78,601.00 1195.78,601.00
             1200.10,610.14 1205.70,622.40 1214.00,628.37
             1226.75,637.54 1232.64,629.67 1233.00,641.00
             1233.00,641.00 1142.00,641.00 1142.00,641.00
             1142.00,641.00 1142.00,635.00 1142.00,635.00
             1146.19,634.45 1153.33,633.68 1157.00,632.03
             1167.54,627.28 1166.44,619.24 1163.85,610.00
             1163.85,610.00 1146.00,564.00 1146.00,564.00
             1146.00,564.00 1065.00,564.00 1065.00,564.00
             1061.59,564.01 1058.19,563.59 1055.65,566.31
             1053.83,568.26 1050.42,577.04 1049.15,580.00
             1049.15,580.00 1037.44,608.00 1037.44,608.00
             1035.71,612.76 1033.97,619.08 1036.01,623.99
             1039.87,633.28 1052.54,633.48 1061.00,635.00
             1061.00,635.00 1061.00,641.00 1061.00,641.00
             1061.00,641.00 989.00,641.00 989.00,641.00
             989.41,629.44 997.35,636.14 1006.96,627.78
             1013.73,621.89 1020.92,607.40 1024.58,599.00
             1024.58,599.00 1078.42,473.00 1078.42,473.00
             1078.42,473.00 1098.42,426.00 1098.42,426.00
             1098.42,426.00 1107.00,405.00 1107.00,405.00 Z
           M 1512.00,567.00
           C 1514.06,567.07 1516.53,566.87 1518.02,568.60
             1519.28,570.07 1520.76,578.53 1521.37,581.00
             1523.34,588.85 1525.78,595.97 1529.88,603.00
             1540.58,621.39 1564.05,632.76 1585.00,633.00
             1592.16,633.08 1600.30,632.18 1607.00,629.54
             1624.44,622.66 1636.57,604.81 1630.96,586.00
             1629.50,581.10 1627.29,577.10 1624.24,573.00
             1617.75,564.28 1607.24,557.94 1598.00,552.40
             1598.00,552.40 1543.00,519.67 1543.00,519.67
             1525.24,507.80 1510.27,491.58 1510.00,469.00
             1509.91,461.33 1509.75,456.50 1512.04,449.00
             1520.24,422.12 1546.55,405.32 1574.00,405.00
             1587.99,404.84 1595.81,406.51 1609.00,411.00
             1613.95,412.69 1625.54,418.04 1630.00,417.70
             1637.06,417.15 1639.60,410.96 1641.00,405.00
             1641.00,405.00 1648.00,405.00 1648.00,405.00
             1648.00,405.00 1648.00,485.00 1648.00,485.00
             1648.00,485.00 1641.00,485.00 1641.00,485.00
             1638.64,455.91 1624.04,430.45 1595.00,421.35
             1576.49,415.54 1555.95,419.07 1543.68,435.00
             1539.07,440.99 1536.73,447.42 1537.04,455.00
             1537.68,470.95 1551.95,480.93 1564.00,489.00
             1564.00,489.00 1617.00,519.58 1617.00,519.58
             1626.64,525.17 1639.33,532.73 1646.71,541.01
             1670.91,568.17 1667.73,607.86 1639.00,630.48
             1622.42,643.54 1605.45,646.24 1585.00,646.00
             1574.30,645.87 1561.17,642.36 1551.00,639.00
             1546.18,637.41 1533.58,633.23 1529.00,633.28
             1520.11,633.37 1519.98,643.04 1517.42,644.98
             1515.95,646.09 1513.74,645.94 1512.00,646.00
             1512.00,646.00 1512.00,567.00 1512.00,567.00 Z
           M 490.00,410.00
           C 490.00,410.00 589.00,410.00 589.00,410.00
             589.00,410.00 589.00,416.00 589.00,416.00
             578.34,416.00 566.40,416.37 559.51,426.00
             554.77,432.64 556.00,445.92 556.00,454.00
             556.00,454.00 556.00,517.00 556.00,517.00
             556.00,517.00 663.00,517.00 663.00,517.00
             663.00,517.00 663.00,452.00 663.00,452.00
             662.93,446.49 662.04,431.24 659.28,427.00
             652.75,416.97 640.75,416.00 630.00,416.00
             630.00,416.00 630.00,410.00 630.00,410.00
             630.00,410.00 728.00,410.00 728.00,410.00
             728.00,410.00 728.00,416.00 728.00,416.00
             718.00,416.00 705.02,416.56 698.99,426.02
             695.99,430.73 695.07,441.33 695.00,447.00
             695.00,447.00 695.00,602.00 695.00,602.00
             695.01,608.13 695.69,619.90 698.99,624.96
             705.13,634.39 717.95,635.00 728.00,635.00
             728.00,635.00 728.00,641.00 728.00,641.00
             728.00,641.00 630.00,641.00 630.00,641.00
             630.00,641.00 630.00,635.00 630.00,635.00
             640.85,635.00 651.42,634.93 658.35,625.00
             661.91,619.89 662.92,605.44 663.00,599.00
             663.00,599.00 663.00,530.00 663.00,530.00
             663.00,530.00 556.00,530.00 556.00,530.00
             556.00,530.00 556.00,596.00 556.00,596.00
             556.00,603.28 554.97,618.10 558.73,624.00
             565.37,634.39 578.06,635.00 589.00,635.00
             589.00,635.00 589.00,641.00 589.00,641.00
             589.00,641.00 490.00,641.00 490.00,641.00
             490.00,641.00 490.00,635.00 490.00,635.00
             500.39,635.00 512.74,635.03 519.00,624.99
             521.82,620.46 522.93,609.43 523.00,604.00
             523.00,604.00 523.00,447.00 523.00,447.00
             522.99,441.98 522.24,431.27 519.86,427.01
             514.21,416.89 500.16,416.00 490.00,416.00
             490.00,416.00 490.00,410.00 490.00,410.00 Z
           M 1232.00,410.00
           C 1232.00,410.00 1287.00,410.00 1287.00,410.00
             1298.12,410.02 1298.21,413.73 1305.08,422.00
             1305.08,422.00 1329.42,452.00 1329.42,452.00
             1329.42,452.00 1436.00,583.00 1436.00,583.00
             1436.00,583.00 1436.00,475.00 1436.00,475.00
             1436.00,475.00 1435.28,439.00 1435.28,439.00
             1434.72,434.73 1434.65,430.97 1432.56,427.00
             1426.74,415.96 1413.78,416.00 1403.00,416.00
             1403.00,416.00 1403.00,410.00 1403.00,410.00
             1403.00,410.00 1483.00,410.00 1483.00,410.00
             1483.00,410.00 1483.00,416.00 1483.00,416.00
             1476.67,416.00 1471.11,415.91 1465.00,418.10
             1460.19,419.83 1455.80,423.34 1453.57,428.00
             1449.77,435.92 1451.00,462.04 1451.00,472.00
             1451.00,472.00 1451.00,646.00 1451.00,646.00
             1441.56,645.88 1440.23,641.08 1434.42,634.00
             1434.42,634.00 1407.75,601.00 1407.75,601.00
             1407.75,601.00 1330.61,506.00 1330.61,506.00
             1330.61,506.00 1293.00,460.00 1293.00,460.00
             1293.00,460.00 1293.00,607.00 1293.00,607.00
             1293.01,611.24 1292.96,612.75 1293.81,617.00
             1297.30,634.46 1310.04,635.00 1325.00,635.00
             1325.00,635.00 1325.00,641.00 1325.00,641.00
             1325.00,641.00 1245.00,641.00 1245.00,641.00
             1245.00,641.00 1245.00,635.00 1245.00,635.00
             1255.09,635.00 1266.70,635.11 1273.35,625.96
             1277.21,620.65 1277.99,607.62 1278.00,601.00
             1278.00,601.00 1278.00,449.00 1278.00,449.00
             1277.98,440.15 1276.19,438.45 1269.96,432.00
             1259.26,420.94 1247.32,416.14 1232.00,416.00
             1232.00,416.00 1232.00,410.00 1232.00,410.00 Z
           M 851.00,459.00
           C 847.01,463.18 840.28,480.69 837.58,487.00
             837.58,487.00 819.58,529.00 819.58,529.00
             816.94,535.19 812.17,544.74 811.00,551.00
             811.00,551.00 889.00,551.00 889.00,551.00
             889.00,551.00 877.01,521.00 877.01,521.00
             877.01,521.00 851.00,459.00 851.00,459.00 Z
           M 1102.00,459.00
           C 1098.01,463.18 1091.28,480.69 1088.58,487.00
             1088.58,487.00 1070.58,529.00 1070.58,529.00
             1067.94,535.19 1063.17,544.74 1062.00,551.00
             1062.00,551.00 1140.00,551.00 1140.00,551.00
             1140.00,551.00 1128.01,521.00 1128.01,521.00
             1128.01,521.00 1102.00,459.00 1102.00,459.00 Z
           M 313.00,654.00
           C 314.74,654.06 316.95,653.91 318.42,655.02
             320.98,656.96 321.11,666.63 330.00,666.72
             334.58,666.77 347.18,662.59 352.00,661.00
             362.17,657.64 375.30,654.13 386.00,654.00
             406.45,653.76 423.42,656.46 440.00,669.52
             468.73,692.14 471.91,731.83 447.71,758.99
             440.33,767.27 427.64,774.83 418.00,780.42
             418.00,780.42 365.00,811.00 365.00,811.00
             351.68,819.92 337.26,830.16 338.04,848.00
             338.33,854.72 341.26,860.84 345.47,866.00
             359.04,882.65 380.91,884.26 400.00,877.31
             426.64,867.60 439.82,841.92 442.00,815.00
             442.00,815.00 449.00,815.00 449.00,815.00
             449.00,815.00 449.00,895.00 449.00,895.00
             449.00,895.00 442.00,895.00 442.00,895.00
             440.60,889.04 438.06,882.85 431.00,882.30
             426.54,881.96 414.95,887.31 410.00,889.00
             396.81,893.49 388.99,895.16 375.00,895.00
             347.55,894.68 321.24,877.88 313.04,851.00
             310.75,843.50 310.91,838.67 311.00,831.00
             311.27,808.42 326.24,792.20 344.00,780.33
             344.00,780.33 399.00,747.60 399.00,747.60
             408.24,742.06 418.75,735.72 425.24,727.00
             428.29,722.90 430.50,718.90 431.96,714.00
             437.57,695.19 425.44,677.34 408.00,670.46
             401.30,667.82 393.16,666.92 386.00,667.00
             365.05,667.24 341.58,678.61 330.88,697.00
             326.78,704.03 324.34,711.15 322.37,719.00
             321.76,721.47 320.28,729.93 319.02,731.40
             317.53,733.13 315.06,732.93 313.00,733.00
             313.00,733.00 313.00,654.00 313.00,654.00 Z
           M 1292.00,840.00
           C 1292.00,840.00 1329.61,794.00 1329.61,794.00
             1329.61,794.00 1406.75,699.00 1406.75,699.00
             1406.75,699.00 1433.42,666.00 1433.42,666.00
             1439.23,658.92 1440.56,654.12 1450.00,654.00
             1450.00,654.00 1450.00,828.00 1450.00,828.00
             1450.00,837.96 1448.77,864.08 1452.57,872.00
             1454.80,876.66 1459.19,880.17 1464.00,881.90
             1470.11,884.09 1475.67,884.00 1482.00,884.00
             1482.00,884.00 1482.00,890.00 1482.00,890.00
             1482.00,890.00 1402.00,890.00 1402.00,890.00
             1402.00,890.00 1402.00,884.00 1402.00,884.00
             1412.78,884.00 1425.74,884.04 1431.56,873.00
             1436.07,864.45 1435.00,840.36 1435.00,830.00
             1435.00,830.00 1435.00,754.00 1435.00,754.00
             1435.00,745.72 1435.89,723.67 1434.00,717.00
             1430.04,724.50 1407.68,750.48 1400.80,759.00
             1400.80,759.00 1326.80,850.00 1326.80,850.00
             1326.80,850.00 1304.08,878.00 1304.08,878.00
             1297.21,886.27 1297.12,889.98 1286.00,890.00
             1286.00,890.00 1231.00,890.00 1231.00,890.00
             1231.00,890.00 1231.00,884.00 1231.00,884.00
             1246.32,883.86 1258.26,879.06 1268.96,868.00
             1275.19,861.55 1276.98,859.85 1277.00,851.00
             1277.00,851.00 1277.00,699.00 1277.00,699.00
             1276.99,692.38 1276.21,679.35 1272.35,674.04
             1265.70,664.89 1254.09,665.00 1244.00,665.00
             1244.00,665.00 1244.00,659.00 1244.00,659.00
             1244.00,659.00 1324.00,659.00 1324.00,659.00
             1324.00,659.00 1324.00,665.00 1324.00,665.00
             1309.04,665.00 1296.30,665.54 1292.81,683.00
             1291.96,687.25 1292.01,688.76 1292.00,693.00
             1292.00,693.00 1292.00,840.00 1292.00,840.00 Z
           M 1511.00,654.00
           C 1512.74,654.06 1514.95,653.91 1516.42,655.02
             1518.98,656.96 1519.11,666.63 1528.00,666.72
             1532.58,666.77 1545.18,662.59 1550.00,661.00
             1560.17,657.64 1573.30,654.13 1584.00,654.00
             1604.45,653.76 1621.42,656.46 1638.00,669.52
             1666.73,692.14 1669.91,731.83 1645.71,758.99
             1638.33,767.27 1625.64,774.83 1616.00,780.42
             1616.00,780.42 1563.00,811.00 1563.00,811.00
             1549.68,819.92 1535.26,830.16 1536.04,848.00
             1536.33,854.72 1539.26,860.84 1543.47,866.00
             1557.04,882.65 1578.91,884.26 1598.00,877.31
             1624.64,867.60 1637.82,841.92 1640.00,815.00
             1640.00,815.00 1647.00,815.00 1647.00,815.00
             1647.00,815.00 1647.00,895.00 1647.00,895.00
             1647.00,895.00 1640.00,895.00 1640.00,895.00
             1638.60,889.04 1636.06,882.85 1629.00,882.30
             1624.54,881.96 1612.95,887.31 1608.00,889.00
             1594.81,893.49 1586.99,895.16 1573.00,895.00
             1545.55,894.68 1519.24,877.88 1511.04,851.00
             1508.75,843.50 1508.91,838.67 1509.00,831.00
             1509.27,808.42 1524.24,792.20 1542.00,780.33
             1542.00,780.33 1597.00,747.60 1597.00,747.60
             1606.24,742.06 1616.75,735.72 1623.24,727.00
             1626.29,722.90 1628.50,718.90 1629.96,714.00
             1635.57,695.19 1623.44,677.34 1606.00,670.46
             1599.30,667.82 1591.16,666.92 1584.00,667.00
             1563.05,667.24 1539.58,678.61 1528.88,697.00
             1524.78,704.03 1522.34,711.15 1520.37,719.00
             1519.76,721.47 1518.28,729.93 1517.02,731.40
             1515.53,733.13 1513.06,732.93 1511.00,733.00
             1511.00,733.00 1511.00,654.00 1511.00,654.00 Z
           M 489.00,659.00
           C 489.00,659.00 588.00,659.00 588.00,659.00
             588.00,659.00 588.00,665.00 588.00,665.00
             577.06,665.00 564.37,665.61 557.73,676.00
             553.97,681.90 555.00,696.72 555.00,704.00
             555.00,704.00 555.00,770.00 555.00,770.00
             555.00,770.00 662.00,770.00 662.00,770.00
             662.00,770.00 662.00,701.00 662.00,701.00
             661.92,694.56 660.91,680.11 657.35,675.00
             650.42,665.07 639.85,665.00 629.00,665.00
             629.00,665.00 629.00,659.00 629.00,659.00
             629.00,659.00 727.00,659.00 727.00,659.00
             727.00,659.00 727.00,665.00 727.00,665.00
             716.95,665.00 704.13,665.61 697.99,675.04
             694.69,680.10 694.01,691.87 694.00,698.00
             694.00,698.00 694.00,852.00 694.00,852.00
             694.03,857.93 694.85,869.06 697.99,873.98
             704.02,883.44 717.00,884.00 727.00,884.00
             727.00,884.00 727.00,890.00 727.00,890.00
             727.00,890.00 629.00,890.00 629.00,890.00
             629.00,890.00 629.00,884.00 629.00,884.00
             639.75,884.00 651.75,883.03 658.28,873.00
             661.04,868.76 661.93,853.51 662.00,848.00
             662.00,848.00 662.00,783.00 662.00,783.00
             662.00,783.00 555.00,783.00 555.00,783.00
             555.00,783.00 555.00,846.00 555.00,846.00
             555.00,854.08 553.77,867.36 558.51,874.00
             565.40,883.63 577.34,884.00 588.00,884.00
             588.00,884.00 588.00,890.00 588.00,890.00
             588.00,890.00 489.00,890.00 489.00,890.00
             489.00,890.00 489.00,884.00 489.00,884.00
             499.16,884.00 513.21,883.11 518.86,872.99
             521.24,868.73 521.99,858.02 522.00,853.00
             522.00,853.00 522.00,697.00 522.00,697.00
             521.97,691.28 520.97,679.78 518.00,675.01
             511.74,664.97 499.39,665.00 489.00,665.00
             489.00,665.00 489.00,659.00 489.00,659.00 Z
           M 737.00,659.00
           C 737.00,659.00 809.00,659.00 809.00,659.00
             809.00,659.00 809.00,665.00 809.00,665.00
             800.54,666.52 787.87,666.72 784.01,676.01
             781.97,680.92 783.71,687.24 785.44,692.00
             785.44,692.00 797.15,720.00 797.15,720.00
             798.42,722.96 801.83,731.74 803.65,733.69
             806.19,736.41 809.59,735.99 813.00,736.00
             813.00,736.00 894.00,736.00 894.00,736.00
             894.00,736.00 911.85,690.00 911.85,690.00
             914.44,680.76 915.54,672.72 905.00,667.97
             901.33,666.32 894.19,665.55 890.00,665.00
             890.00,665.00 890.00,659.00 890.00,659.00
             890.00,659.00 981.00,659.00 981.00,659.00
             980.64,670.33 974.75,662.46 962.00,671.63
             953.70,677.60 948.10,689.86 943.78,699.00
             943.78,699.00 921.58,752.00 921.58,752.00
             921.58,752.00 881.01,849.00 881.01,849.00
             881.01,849.00 866.85,883.00 866.85,883.00
             861.74,894.91 862.75,894.91 855.00,895.00
             855.00,895.00 846.42,874.00 846.42,874.00
             846.42,874.00 826.42,827.00 826.42,827.00
             826.42,827.00 772.58,701.00 772.58,701.00
             768.92,692.60 761.73,678.11 754.96,672.22
             745.35,663.86 737.41,670.56 737.00,659.00 Z
           M 988.00,659.00
           C 988.00,659.00 1060.00,659.00 1060.00,659.00
             1060.00,659.00 1060.00,665.00 1060.00,665.00
             1051.54,666.52 1038.87,666.72 1035.01,676.01
             1032.97,680.92 1034.71,687.24 1036.44,692.00
             1036.44,692.00 1048.15,720.00 1048.15,720.00
             1049.42,722.96 1052.83,731.74 1054.65,733.69
             1057.19,736.41 1060.59,735.99 1064.00,736.00
             1064.00,736.00 1145.00,736.00 1145.00,736.00
             1145.00,736.00 1162.85,690.00 1162.85,690.00
             1165.44,680.76 1166.54,672.72 1156.00,667.97
             1152.33,666.32 1145.19,665.55 1141.00,665.00
             1141.00,665.00 1141.00,659.00 1141.00,659.00
             1141.00,659.00 1232.00,659.00 1232.00,659.00
             1231.64,670.33 1225.75,662.46 1213.00,671.63
             1204.70,677.60 1199.10,689.86 1194.78,699.00
             1194.78,699.00 1172.58,752.00 1172.58,752.00
             1172.58,752.00 1132.01,849.00 1132.01,849.00
             1132.01,849.00 1117.85,883.00 1117.85,883.00
             1112.74,894.91 1113.75,894.91 1106.00,895.00
             1106.00,895.00 1097.42,874.00 1097.42,874.00
             1097.42,874.00 1077.42,827.00 1077.42,827.00
             1077.42,827.00 1023.58,701.00 1023.58,701.00
             1019.92,692.60 1012.73,678.11 1005.96,672.22
             996.35,663.86 988.41,670.56 988.00,659.00 Z
           M 888.00,749.00
           C 888.00,749.00 810.00,749.00 810.00,749.00
             810.00,749.00 824.15,784.00 824.15,784.00
             824.15,784.00 840.14,821.00 840.14,821.00
             840.14,821.00 849.00,841.00 849.00,841.00
             849.00,841.00 863.42,809.00 863.42,809.00
             863.42,809.00 879.42,771.00 879.42,771.00
             879.42,771.00 888.00,749.00 888.00,749.00 Z
           M 1139.00,749.00
           C 1139.00,749.00 1061.00,749.00 1061.00,749.00
             1061.00,749.00 1075.15,784.00 1075.15,784.00
             1075.15,784.00 1091.14,821.00 1091.14,821.00
             1091.14,821.00 1100.00,841.00 1100.00,841.00
             1100.00,841.00 1114.42,809.00 1114.42,809.00
             1114.42,809.00 1130.42,771.00 1130.42,771.00
             1130.42,771.00 1139.00,749.00 1139.00,749.00 Z" />
</svg>
